<?xml version="1.0" encoding="utf-8"?>
<!-- Generator: Adobe Illustrator 23.1.0, SVG Export Plug-In . SVG Version: 6.00 Build 0)  -->
<svg version="1.1" id="Layer_1" xmlns="http://www.w3.org/2000/svg" xmlns:xlink="http://www.w3.org/1999/xlink" x="0px" y="0px"
	 viewBox="0 0 512 512" style="enable-background:new 0 0 512 512;" xml:space="preserve">
<style type="text/css">
	.st0{fill:#A31011;}
</style>
<path d="M95.04,480.93H13.44l148.78-376.65c7.94-20.09,19.15-34.21,33.58-42.37s32.96-12.24,55.56-12.24
	c22.18,0,40.49,4.08,54.93,12.24c14.44,8.16,25.42,22.28,32.96,42.37l143.13,376.65h-82.24L271.44,140.06
	c-3.77-9.62-10.67-14.44-20.72-14.44c-10.04,0-17.16,4.82-21.34,14.44L95.04,480.93z"/>
<circle class="st0" cx="251.91" cy="350.65" r="56.21"/>
<g>
	<path class="st0" d="M468.34,34.02c5.8,0,10.75,0.65,14.86,1.96c4.11,1.31,7.49,3.14,10.15,5.51c2.66,2.37,4.61,5.15,5.87,8.34
		c1.25,3.19,1.88,6.67,1.88,10.44c0,5.8-1.18,10.51-3.55,14.14c-2.37,3.62-5.82,6.4-10.37,8.34c4.64,1.93,8.17,4.76,10.58,8.48
		c2.42,3.72,3.63,8.53,3.63,14.43c0,3.67-0.63,7.1-1.88,10.29c-1.26,3.19-3.19,5.97-5.8,8.34c-2.61,2.37-5.97,4.23-10.08,5.58
		c-4.11,1.35-9.06,2.03-14.86,2.03h-49.44v-17.11h49.44c5.02,0,8.75-1.09,11.16-3.26c2.42-2.17,3.63-5.24,3.63-9.21
		c0-7.83-4.98-11.74-14.93-11.74h-30.16V75.05h29.72c5.02,0,8.77-0.94,11.24-2.83c2.46-1.88,3.7-4.86,3.7-8.92
		c0-3.67-1.16-6.62-3.48-8.84c-2.32-2.22-6.09-3.33-11.31-3.33h-48.86V34.02H468.34z"/>
</g>
</svg>
