<?xml version="1.0" encoding="utf-8"?>
<!-- Generator: Adobe Illustrator 23.1.0, SVG Export Plug-In . SVG Version: 6.00 Build 0)  -->
<svg version="1.1" id="FullLogo" xmlns="http://www.w3.org/2000/svg" xmlns:xlink="http://www.w3.org/1999/xlink" x="0px" y="0px"
	 viewBox="0 0 4466.08 495.91" style="enable-background:new 0 0 4466.08 495.91;" xml:space="preserve">
<style type="text/css">
	.st0{fill:#A31011;}
</style>
<g>
	<path d="M710.67,148.83v172.95h-51.09V148.83H710.67z"/>
	<path d="M909.84,29.51c42.72,0,75.41,12.12,98.07,36.37c22.66,24.25,33.99,61.05,33.99,110.42c0,49.08-11.33,85.59-33.99,109.55
		c-22.67,23.96-55.36,35.94-98.07,35.94h-39.84c-42.72,0-75.42-11.98-98.07-35.94c-22.67-23.96-33.99-60.47-33.99-109.55
		c0-49.36,11.33-86.17,33.99-110.42c22.66-24.25,55.35-36.37,98.07-36.37H909.84z M870.01,80.61c-28.29,0-48.86,7.51-61.7,22.52
		c-12.85,15.01-19.27,39.4-19.27,73.18c0,33.49,6.35,57.59,19.05,72.31c12.7,14.72,33.34,22.08,61.92,22.08h39.84
		c28,0,48.42-7.43,61.27-22.3c12.84-14.86,19.27-39.04,19.27-72.53c0-33.48-6.35-57.73-19.05-72.74
		c-12.71-15.01-33.2-22.52-61.49-22.52H870.01z"/>
</g>
<path d="M1328.55,29.51v231.22c0,4.91-1.52,8.88-4.55,11.91s-7.29,4.55-12.77,4.55c-4.91,0-8.81-1.15-11.69-3.46
	c-2.89-2.31-5.2-5.2-6.93-8.66l-85.3-186.62c-6.06-16.74-14.36-29.95-24.9-39.62c-10.54-9.67-25.91-14.5-46.11-14.5
	c-22.81,0-39.69,5.85-50.66,17.54c-10.97,11.69-16.45,27.06-16.45,46.11v233.81h0v86.31c0,5.2-1.52,9.31-4.55,12.34
	c-3.03,3.03-7.43,4.55-13.21,4.55c-6.23,0-137.3,0.01-212.17,0.02l-81.3-0.69c-9.8,0-14.96-0.31-18.79-1.98
	c-3.93-1.71-7.49-4.25-11.21-8.67c-5.25-6.26-183.02-217.66-203.64-242.21L647.89,29.51h-63.22l-93.96,107.82L401.08,29.51h-62.35
	l118.64,139.86l-11.81,13.76l-81.05,94.47l-15.36,17.9c0,0,0,0,0,0c-2.51,2.93-4.23,4.58-8.29,5.67c-4.14,1.11-6.41,0.96-9.4,0.05
	c-2.67-0.81-5.59-2.62-6.43-4.8c-1.33-3.45-2.67-6.31-4.04-9.9l-8.82-23.21L235.68,61.99c-5.2-13.86-12.77-23.6-22.73-29.23
	s-22.59-8.44-37.89-8.44c-15.59,0-28.36,2.81-38.32,8.44s-17.69,15.37-23.17,29.23L10.95,321.79h56.29L159.9,86.67
	c2.88-6.64,7.79-9.96,14.72-9.96c6.93,0,11.69,3.32,14.29,9.96l82.04,217.31l6.72,17.81c3.19,8.44,4.79,12.85,10.85,18.52
	c5.59,5.22,11.64,8.46,21.36,11.21c13.39,3.78,26.24,4.48,40.62-0.13c15.35-4.93,36.55-24.37,49-40.88l37.82-44.07l51.73-60.28
	C516.26,238.53,679,432.1,691.28,446.72c14.66,17.47,30,26.64,46,27.52c16.01,0.89,31.28,0.09,51.74,0.09h1c4.74,0,25.38,0,53.2,0
	c72.96,0,195.32,0,209.94,0c22.81,0,39.69-5.85,50.66-17.54c10.97-11.69,16.45-27.06,16.45-46.11l0-88.9V90.56
	c0-5.2,1.52-9.31,4.55-12.34c3.03-3.03,7.43-4.55,13.21-4.55c8.37,0,14.43,4.19,18.19,12.56l85.3,186.62
	c2.88,8.38,6.35,15.88,10.39,22.52c4.04,6.64,8.88,12.34,14.51,17.1s12.27,8.38,19.92,10.83c7.64,2.45,16.52,3.68,26.63,3.68
	c22.52,0,39.33-5.85,50.45-17.54c11.11-11.69,16.67-27.2,16.67-46.55V29.51H1328.55z"/>
<circle class="st0" cx="175.44" cy="231.92" r="38.77"/>
<circle class="st0" cx="685.12" cy="80.61" r="38.77"/>
<g>
	<path class="st0" d="M737.6,364.31v-6.06h5.27v6.06H737.6z M737.6,401.2v-31.11h5.27v31.11H737.6z"/>
	<path class="st0" d="M750.9,401.2v-31.11h4.75v4.42c2.29-3.42,5.59-5.13,9.9-5.13c1.88,0,3.6,0.34,5.17,1.01s2.75,1.56,3.53,2.65
		s1.33,2.39,1.64,3.9c0.2,0.98,0.29,2.69,0.29,5.13v19.13h-5.27v-18.93c0-2.15-0.21-3.75-0.62-4.82s-1.14-1.91-2.18-2.55
		c-1.04-0.63-2.27-0.95-3.68-0.95c-2.25,0-4.19,0.71-5.82,2.14c-1.63,1.43-2.45,4.13-2.45,8.12v16.99H750.9z"/>
	<path class="st0" d="M795.79,396.48l0.76,4.66c-1.48,0.31-2.81,0.47-3.98,0.47c-1.91,0-3.4-0.3-4.45-0.91s-1.8-1.4-2.23-2.39
		s-0.64-3.06-0.64-6.23v-17.9h-3.87v-4.1h3.87v-7.71l5.24-3.16v10.87h5.3v4.1h-5.3v18.19c0,1.5,0.09,2.47,0.28,2.9
		s0.49,0.77,0.91,1.03s1.02,0.38,1.8,0.38C794.06,396.69,794.83,396.62,795.79,396.48z"/>
	<path class="st0" d="M822.24,391.18l5.45,0.67c-0.86,3.18-2.45,5.65-4.78,7.41s-5.29,2.64-8.91,2.64c-4.55,0-8.16-1.4-10.83-4.2
		s-4-6.73-4-11.79c0-5.23,1.35-9.3,4.04-12.19s6.19-4.34,10.49-4.34c4.16,0,7.56,1.42,10.2,4.25s3.96,6.82,3.96,11.95
		c0,0.31-0.01,0.78-0.03,1.41h-23.2c0.2,3.42,1.16,6.04,2.9,7.85s3.91,2.72,6.5,2.72c1.93,0,3.58-0.51,4.95-1.52
		S821.44,393.41,822.24,391.18z M804.93,382.65h17.37c-0.23-2.62-0.9-4.58-1.99-5.89c-1.68-2.03-3.86-3.05-6.53-3.05
		c-2.42,0-4.46,0.81-6.11,2.43S805.1,379.94,804.93,382.65z"/>
	<path class="st0" d="M834.25,401.2v-31.11H839v4.72c1.21-2.21,2.33-3.66,3.35-4.37s2.15-1.05,3.38-1.05c1.78,0,3.58,0.57,5.42,1.7
		l-1.82,4.89c-1.29-0.76-2.58-1.14-3.87-1.14c-1.15,0-2.19,0.35-3.11,1.04s-1.57,1.66-1.96,2.89c-0.59,1.88-0.88,3.93-0.88,6.15
		v16.29H834.25z"/>
	<path class="st0" d="M854.29,401.2v-31.11h4.75v4.42c2.29-3.42,5.59-5.13,9.9-5.13c1.88,0,3.6,0.34,5.17,1.01s2.75,1.56,3.53,2.65
		s1.33,2.39,1.64,3.9c0.2,0.98,0.29,2.69,0.29,5.13v19.13h-5.27v-18.93c0-2.15-0.21-3.75-0.62-4.82s-1.14-1.91-2.18-2.55
		s-2.27-0.95-3.68-0.95c-2.25,0-4.18,0.71-5.82,2.14s-2.45,4.13-2.45,8.12v16.99H854.29z"/>
	<path class="st0" d="M907.96,397.36c-1.95,1.66-3.83,2.83-5.64,3.52s-3.75,1.03-5.82,1.03c-3.42,0-6.04-0.83-7.88-2.5
		s-2.75-3.8-2.75-6.4c0-1.52,0.35-2.92,1.04-4.17s1.6-2.27,2.72-3.03s2.39-1.34,3.79-1.73c1.04-0.27,2.6-0.54,4.69-0.79
		c4.26-0.51,7.39-1.11,9.4-1.82c0.02-0.72,0.03-1.18,0.03-1.38c0-2.15-0.5-3.66-1.49-4.54c-1.35-1.19-3.35-1.79-6.01-1.79
		c-2.48,0-4.31,0.43-5.49,1.3s-2.06,2.41-2.62,4.61l-5.16-0.7c0.47-2.21,1.24-3.99,2.31-5.35s2.63-2.4,4.66-3.13s4.38-1.1,7.06-1.1
		c2.66,0,4.81,0.31,6.47,0.94s2.88,1.41,3.66,2.36s1.33,2.14,1.64,3.59c0.18,0.9,0.26,2.52,0.26,4.86v7.03c0,4.9,0.11,8,0.34,9.3
		s0.67,2.54,1.33,3.74h-5.51C908.47,400.1,908.12,398.83,907.96,397.36z M907.52,385.58c-1.91,0.78-4.79,1.45-8.61,1.99
		c-2.17,0.31-3.7,0.66-4.6,1.05s-1.59,0.96-2.08,1.71s-0.73,1.59-0.73,2.5c0,1.41,0.53,2.58,1.6,3.52s2.62,1.41,4.67,1.41
		c2.03,0,3.84-0.44,5.42-1.33s2.74-2.1,3.49-3.65c0.57-1.19,0.85-2.95,0.85-5.27V385.58z"/>
	<path class="st0" d="M932.54,396.48l0.76,4.66c-1.48,0.31-2.81,0.47-3.98,0.47c-1.91,0-3.4-0.3-4.45-0.91s-1.8-1.4-2.23-2.39
		s-0.64-3.06-0.64-6.23v-17.9h-3.87v-4.1H922v-7.71l5.24-3.16v10.87h5.3v4.1h-5.3v18.19c0,1.5,0.09,2.47,0.28,2.9
		s0.49,0.77,0.91,1.03s1.02,0.38,1.8,0.38C930.82,396.69,931.59,396.62,932.54,396.48z"/>
	<path class="st0" d="M937.73,364.31v-6.06H943v6.06H937.73z M937.73,401.2v-31.11H943v31.11H937.73z"/>
	<path class="st0" d="M949.07,385.64c0-5.76,1.6-10.03,4.8-12.8c2.68-2.3,5.94-3.46,9.79-3.46c4.28,0,7.77,1.4,10.49,4.2
		s4.07,6.67,4.07,11.62c0,4-0.6,7.15-1.8,9.45s-2.95,4.08-5.24,5.35s-4.8,1.9-7.51,1.9c-4.36,0-7.88-1.4-10.56-4.19
		S949.07,390.9,949.07,385.64z M954.49,385.64c0,3.98,0.87,6.97,2.61,8.95s3.93,2.97,6.56,2.97c2.62,0,4.79-1,6.53-2.99
		s2.61-5.03,2.61-9.11c0-3.85-0.87-6.76-2.62-8.75s-3.92-2.97-6.52-2.97c-2.64,0-4.82,0.99-6.56,2.96S954.49,381.66,954.49,385.64z"
		/>
	<path class="st0" d="M984.4,401.2v-31.11h4.75v4.42c2.29-3.42,5.59-5.13,9.9-5.13c1.88,0,3.6,0.34,5.17,1.01s2.75,1.56,3.53,2.65
		s1.33,2.39,1.64,3.9c0.2,0.98,0.29,2.69,0.29,5.13v19.13h-5.27v-18.93c0-2.15-0.21-3.75-0.62-4.82s-1.14-1.91-2.18-2.55
		s-2.27-0.95-3.68-0.95c-2.25,0-4.18,0.71-5.82,2.14s-2.45,4.13-2.45,8.12v16.99H984.4z"/>
	<path class="st0" d="M1038.07,397.36c-1.95,1.66-3.83,2.83-5.64,3.52s-3.75,1.03-5.82,1.03c-3.42,0-6.04-0.83-7.88-2.5
		s-2.75-3.8-2.75-6.4c0-1.52,0.35-2.92,1.04-4.17s1.6-2.27,2.72-3.03s2.39-1.34,3.79-1.73c1.04-0.27,2.6-0.54,4.69-0.79
		c4.26-0.51,7.39-1.11,9.4-1.82c0.02-0.72,0.03-1.18,0.03-1.38c0-2.15-0.5-3.66-1.49-4.54c-1.35-1.19-3.35-1.79-6.01-1.79
		c-2.48,0-4.31,0.43-5.49,1.3s-2.06,2.41-2.62,4.61l-5.16-0.7c0.47-2.21,1.24-3.99,2.31-5.35s2.63-2.4,4.66-3.13s4.38-1.1,7.06-1.1
		c2.66,0,4.81,0.31,6.47,0.94s2.88,1.41,3.66,2.36s1.33,2.14,1.64,3.59c0.18,0.9,0.26,2.52,0.26,4.86v7.03c0,4.9,0.11,8,0.34,9.3
		s0.67,2.54,1.33,3.74h-5.51C1038.58,400.1,1038.23,398.83,1038.07,397.36z M1037.63,385.58c-1.91,0.78-4.79,1.45-8.61,1.99
		c-2.17,0.31-3.7,0.66-4.6,1.05s-1.59,0.96-2.08,1.71s-0.73,1.59-0.73,2.5c0,1.41,0.53,2.58,1.6,3.52s2.62,1.41,4.67,1.41
		c2.03,0,3.84-0.44,5.42-1.33s2.74-2.1,3.49-3.65c0.57-1.19,0.85-2.95,0.85-5.27V385.58z"/>
	<path class="st0" d="M1051.02,401.2v-42.95h5.27v42.95H1051.02z"/>
</g>
<circle class="st0" cx="1756.48" cy="231.92" r="38.77"/>
<g>
	<path d="M1647.7,322.78h-56.29l102.62-259.8c5.48-13.86,13.21-23.6,23.17-29.23s22.73-8.44,38.32-8.44
		c15.3,0,27.93,2.81,37.89,8.44s17.54,15.37,22.73,29.23l98.72,259.8h-56.72l-88.76-235.12c-2.6-6.64-7.36-9.96-14.29-9.96
		c-6.93,0-11.84,3.32-14.72,9.96L1647.7,322.78z"/>
	<path d="M1988.91,30.5v190.95c0,6.93,0.93,13.5,2.81,19.7c1.87,6.21,5.12,11.55,9.74,16.02c4.61,4.48,10.75,8.01,18.4,10.61
		c7.65,2.6,17.25,3.9,28.79,3.9h113.45v51.09h-116.48c-19.34,0-35.87-2.52-49.58-7.58c-13.71-5.05-24.9-12.05-33.56-21
		c-8.66-8.94-14.94-19.55-18.84-31.83c-3.9-12.27-5.85-25.76-5.85-40.49V30.5H1988.91z"/>
	<path d="M2250.44,30.5v190.95c0,6.93,0.93,13.5,2.81,19.7c1.87,6.21,5.12,11.55,9.74,16.02c4.61,4.48,10.75,8.01,18.4,10.61
		c7.65,2.6,17.25,3.9,28.79,3.9h113.45v51.09h-116.48c-19.34,0-35.87-2.52-49.58-7.58c-13.71-5.05-24.9-12.05-33.56-21
		c-8.66-8.94-14.94-19.55-18.84-31.83c-3.9-12.27-5.85-25.76-5.85-40.49V30.5H2250.44z"/>
</g>
<circle class="st0" cx="2810.37" cy="231.92" r="38.77"/>
<g>
	<path d="M2702.87,327.78h-56.29l102.62-259.8c5.48-13.86,13.21-23.6,23.17-29.23s22.73-8.44,38.32-8.44
		c15.3,0,27.93,2.81,37.89,8.44s17.54,15.37,22.73,29.23l98.72,259.8h-56.72l-88.76-235.12c-2.6-6.64-7.36-9.96-14.29-9.96
		c-6.93,0-11.84,3.32-14.72,9.96L2702.87,327.78z"/>
	<path d="M3230.27,35.5V86.6h-113.01c-28.29,0-48.86,7.44-61.7,22.3c-12.85,14.87-19.27,39.19-19.27,72.96
		c0,33.49,6.35,57.66,19.05,72.53c12.7,14.87,33.34,22.3,61.92,22.3h113.01v51.09h-113.01c-42.72,0-75.42-12.05-98.07-36.16
		c-22.67-24.1-33.99-60.69-33.99-109.77c0-49.36,11.33-86.09,33.99-110.2c22.66-24.1,55.35-36.16,98.07-36.16H3230.27z"/>
	<path d="M3521.25,35.5V86.6h-113.01c-28.29,0-48.86,7.44-61.7,22.3c-12.85,14.87-19.27,39.19-19.27,72.96
		c0,33.49,6.35,57.66,19.05,72.53c12.7,14.87,33.34,22.3,61.92,22.3h113.01v51.09h-113.01c-42.72,0-75.42-12.05-98.07-36.16
		c-22.67-24.1-33.99-60.69-33.99-109.77c0-49.36,11.33-86.09,33.99-110.2c22.66-24.1,55.35-36.16,98.07-36.16H3521.25z"/>
	<path d="M3815.68,35.5V86.6h-146.35c-15.59,0-26.85,3.32-33.77,9.96c-6.93,6.64-10.39,15.59-10.39,26.85
		c0,23.1,14.86,34.64,44.6,34.64h143.76v46.33h-145.05c-29.73,0-44.6,11.84-44.6,35.51c0,11.55,3.61,20.57,10.83,27.06
		c7.21,6.5,18.33,9.74,33.34,9.74h148.09v51.09h-148.09c-17.32,0-32.12-2.02-44.38-6.06c-12.27-4.04-22.37-9.59-30.31-16.67
		c-7.94-7.07-13.71-15.51-17.32-25.33c-3.61-9.81-5.41-20.35-5.41-31.61c0-16.74,3.61-30.67,10.82-41.78
		c7.21-11.11,17.6-19.55,31.18-25.33c-27.43-11.26-41.14-33.19-41.14-65.82c0-11.54,1.87-22.23,5.63-32.04
		c3.75-9.81,9.59-18.25,17.54-25.33c7.94-7.07,18.04-12.56,30.31-16.45c12.27-3.9,27.06-5.85,44.38-5.85H3815.68z"/>
	<path d="M4107.95,35.5V86.6h-149.82c-13.28,0-22.95,3.25-29.01,9.74c-6.06,6.5-9.09,14.8-9.09,24.9c0,4.33,0.65,8.59,1.95,12.77
		c1.3,4.19,3.61,7.94,6.93,11.26c3.32,3.32,7.72,5.92,13.21,7.79c5.48,1.88,12.56,2.81,21.22,2.81h68.41
		c19.92,0,36.22,2.53,48.93,7.58c12.7,5.05,22.73,11.62,30.09,19.7c7.36,8.08,12.41,17.32,15.16,27.71
		c2.74,10.39,4.11,20.78,4.11,31.18c0,12.42-1.73,23.82-5.2,34.21c-3.46,10.39-8.95,19.42-16.45,27.06
		c-7.51,7.65-17.1,13.64-28.79,17.97c-11.69,4.33-25.91,6.5-42.65,6.5h-162.81v-51.09h164.54c13.86,0,24.03-3.39,30.53-10.18
		c6.5-6.78,9.74-15.51,9.74-26.2c0-4.61-0.72-9.16-2.17-13.64c-1.45-4.47-3.9-8.37-7.36-11.69c-3.46-3.31-8.16-5.99-14.07-8.01
		c-5.92-2.02-13.36-3.03-22.3-3.03h-67.98c-19.63,0-35.66-2.45-48.06-7.36c-12.42-4.91-22.16-11.4-29.23-19.48
		c-7.08-8.08-11.98-17.17-14.72-27.28c-2.75-10.1-4.11-20.2-4.11-30.31c0-12.12,1.66-23.31,4.98-33.56
		c3.32-10.24,8.66-19.12,16.02-26.63c7.36-7.5,16.81-13.35,28.36-17.54c11.54-4.18,25.4-6.28,41.57-6.28H4107.95z"/>
	<path d="M4412.35,35.5V86.6h-149.82c-13.28,0-22.95,3.25-29.01,9.74c-6.06,6.5-9.09,14.8-9.09,24.9c0,4.33,0.65,8.59,1.95,12.77
		c1.3,4.19,3.61,7.94,6.93,11.26c3.32,3.32,7.72,5.92,13.21,7.79c5.48,1.88,12.56,2.81,21.22,2.81h68.41
		c19.92,0,36.22,2.53,48.93,7.58c12.7,5.05,22.73,11.62,30.09,19.7c7.36,8.08,12.41,17.32,15.16,27.71
		c2.74,10.39,4.11,20.78,4.11,31.18c0,12.42-1.73,23.82-5.2,34.21c-3.46,10.39-8.95,19.42-16.45,27.06
		c-7.51,7.65-17.1,13.64-28.79,17.97c-11.69,4.33-25.91,6.5-42.65,6.5h-162.81v-51.09h164.54c13.86,0,24.03-3.39,30.53-10.18
		c6.5-6.78,9.74-15.51,9.74-26.2c0-4.61-0.72-9.16-2.17-13.64c-1.45-4.47-3.9-8.37-7.36-11.69c-3.46-3.31-8.16-5.99-14.07-8.01
		c-5.92-2.02-13.36-3.03-22.3-3.03h-67.98c-19.63,0-35.66-2.45-48.06-7.36c-12.42-4.91-22.16-11.4-29.23-19.48
		c-7.08-8.08-11.98-17.17-14.72-27.28c-2.75-10.1-4.11-20.2-4.11-30.31c0-12.12,1.66-23.31,4.98-33.56
		c3.32-10.24,8.66-19.12,16.02-26.63c7.36-7.5,16.81-13.35,28.36-17.54c11.54-4.18,25.4-6.28,41.57-6.28H4412.35z"/>
</g>
</svg>
