<?xml version="1.0" encoding="utf-8"?>
<!-- Generator: Adobe Illustrator 23.1.0, SVG Export Plug-In . SVG Version: 6.00 Build 0)  -->
<svg version="1.1" id="FullLogo" xmlns="http://www.w3.org/2000/svg" xmlns:xlink="http://www.w3.org/1999/xlink" x="0px" y="0px"
	 viewBox="0 0 1413.1 519.8" style="enable-background:new 0 0 1413.1 519.8;" xml:space="preserve">
<style type="text/css">
	.st0{fill:#A31011;}
	.st1{fill:none;}
	.st2{font-family:'ArialMT';}
	.st3{font-size:60px;}
</style>
<g>
	<path d="M710.67,172.23v172.95h-51.09V172.23H710.67z"/>
	<path d="M909.84,52.91c42.72,0,75.41,12.12,98.07,36.37c22.66,24.25,33.99,61.05,33.99,110.42c0,49.08-11.33,85.59-33.99,109.55
		c-22.67,23.96-55.36,35.94-98.07,35.94h-39.84c-42.72,0-75.42-11.98-98.07-35.94c-22.67-23.96-33.99-60.47-33.99-109.55
		c0-49.36,11.33-86.17,33.99-110.42c22.66-24.25,55.35-36.37,98.07-36.37H909.84z M870.01,104c-28.29,0-48.86,7.51-61.7,22.52
		c-12.85,15.01-19.27,39.4-19.27,73.18c0,33.49,6.35,57.59,19.05,72.31c12.7,14.72,33.34,22.08,61.92,22.08h39.84
		c28,0,48.42-7.43,61.27-22.3c12.84-14.86,19.27-39.04,19.27-72.53c0-33.48-6.35-57.73-19.05-72.74
		c-12.71-15.01-33.2-22.52-61.49-22.52H870.01z"/>
</g>
<path d="M1328.55,52.91v231.22c0,4.91-1.52,8.88-4.55,11.91s-7.29,4.55-12.77,4.55c-4.91,0-8.81-1.15-11.69-3.46
	c-2.89-2.31-5.2-5.2-6.93-8.66l-85.3-186.62c-6.06-16.74-14.36-29.95-24.9-39.62c-10.54-9.67-25.91-14.5-46.11-14.5
	c-22.81,0-39.69,5.85-50.66,17.54c-10.97,11.69-16.45,27.06-16.45,46.11v233.81h0v86.31c0,5.2-1.52,9.31-4.55,12.34
	c-3.03,3.03-7.43,4.55-13.21,4.55c-6.23,0-137.3,0.01-212.17,0.02l-81.3-0.69c-9.8,0-14.96-0.31-18.79-1.98
	c-3.93-1.71-7.49-4.25-11.21-8.67c-5.25-6.26-183.02-217.66-203.64-242.21L647.89,52.91h-63.22l-93.96,107.82L401.08,52.91h-62.35
	l118.64,139.86l-11.81,13.76L364.51,301l-15.36,17.9c0,0,0,0,0,0c-2.51,2.93-4.23,4.58-8.29,5.67c-4.14,1.11-6.41,0.96-9.4,0.05
	c-2.67-0.81-5.59-2.62-6.43-4.8c-1.33-3.45-2.67-6.31-4.04-9.9l-8.82-23.21L235.68,85.38c-5.2-13.86-12.77-23.6-22.73-29.23
	s-22.59-8.44-37.89-8.44c-15.59,0-28.36,2.81-38.32,8.44s-17.69,15.37-23.17,29.23L10.95,345.18h56.29l92.66-235.12
	c2.88-6.64,7.79-9.96,14.72-9.96c6.93,0,11.69,3.32,14.29,9.96l82.04,217.31l6.72,17.81c3.19,8.44,4.79,12.85,10.85,18.52
	c5.59,5.22,11.64,8.46,21.36,11.21c13.39,3.78,26.24,4.48,40.62-0.13c15.35-4.93,36.55-24.37,49-40.88l37.82-44.07l51.73-60.28
	C516.26,261.93,679,455.5,691.28,470.12c14.66,17.47,30,26.64,46,27.52c16.01,0.89,31.28,0.09,51.74,0.09h1c4.74,0,25.38,0,53.2,0
	c72.96,0,195.32,0,209.94,0c22.81,0,39.69-5.85,50.66-17.54c10.97-11.69,16.45-27.06,16.45-46.11l0-88.9V113.96
	c0-5.2,1.52-9.31,4.55-12.34c3.03-3.03,7.43-4.55,13.21-4.55c8.37,0,14.43,4.19,18.19,12.56l85.3,186.62
	c2.88,8.38,6.35,15.88,10.39,22.52c4.04,6.64,8.88,12.34,14.51,17.1s12.27,8.38,19.92,10.83c7.64,2.45,16.52,3.68,26.63,3.68
	c22.52,0,39.33-5.85,50.45-17.54c11.11-11.69,16.67-27.2,16.67-46.55V52.91H1328.55z"/>
<circle class="st0" cx="175.44" cy="255.32" r="38.77"/>
<rect x="729.49" y="381.64" class="st1" width="335.14" height="85.92"/>
<text transform="matrix(1 0 0 1 733.6178 424.5953)" class="st0 st2 st3">international</text>
<circle class="st0" cx="685.12" cy="104" r="38.77"/>
</svg>
