<svg xmlns="http://www.w3.org/2000/svg" xmlns:xlink="http://www.w3.org/1999/xlink" xmlns:lucid="lucid" width="883" height="767"><g transform="translate(-9 -20)" lucid:page-tab-id="vd4qLbPTrRnd"><path d="M0 0h912v832H0z" fill="#fff"/><path d="M341 40h200v448H341z" fill="#c1e4f7"/><path d="M341 40h200v40H341z" fill="#9ab6c6"/><path d="M341 40h200v448H341zM341 80h200" stroke="#3d4752" stroke-width="2" fill="none"/><use xlink:href="#a" transform="matrix(1,0,0,1,351,40) translate(10 28.175)"/><use xlink:href="#b" transform="matrix(1,0,0,1,346,82.5) translate(10 22.675)"/><use xlink:href="#c" transform="matrix(1,0,0,1,346,82.5) translate(37.504 22.675)"/><use xlink:href="#d" transform="matrix(1,0,0,1,346,82.5) translate(156.10600000000002 22.675)"/><use xlink:href="#b" transform="matrix(1,0,0,1,346,116.5) translate(10 22.675)"/><use xlink:href="#e" transform="matrix(1,0,0,1,346,116.5) translate(37.504 22.675)"/><use xlink:href="#f" transform="matrix(1,0,0,1,346,116.5) translate(76.816 22.675)"/><use xlink:href="#g" transform="matrix(1,0,0,1,346,150.5) translate(10 22.675)"/><use xlink:href="#h" transform="matrix(1,0,0,1,346,150.5) translate(36.01 22.675)"/><use xlink:href="#g" transform="matrix(1,0,0,1,346,184.5) translate(10 22.675)"/><use xlink:href="#i" transform="matrix(1,0,0,1,346,184.5) translate(36.01 22.675)"/><use xlink:href="#b" transform="matrix(1,0,0,1,346,218.5) translate(10 22.675)"/><use xlink:href="#j" transform="matrix(1,0,0,1,346,218.5) translate(37.504 22.675)"/><use xlink:href="#b" transform="matrix(1,0,0,1,346,252.5) translate(10 22.675)"/><use xlink:href="#k" transform="matrix(1,0,0,1,346,252.5) translate(37.504 22.675)"/><use xlink:href="#b" transform="matrix(1,0,0,1,346,286.5) translate(10 22.675)"/><use xlink:href="#l" transform="matrix(1,0,0,1,346,286.5) translate(37.504 22.675)"/><use xlink:href="#b" transform="matrix(1,0,0,1,346,320.5) translate(10 22.675)"/><use xlink:href="#m" transform="matrix(1,0,0,1,346,320.5) translate(37.504 22.675)"/><use xlink:href="#b" transform="matrix(1,0,0,1,346,354.5) translate(10 22.675)"/><use xlink:href="#n" transform="matrix(1,0,0,1,346,354.5) translate(37.504 22.675)"/><use xlink:href="#b" transform="matrix(1,0,0,1,346,388.5) translate(10 22.675)"/><use xlink:href="#o" transform="matrix(1,0,0,1,346,388.5) translate(37.504 22.675)"/><use xlink:href="#f" transform="matrix(1,0,0,1,346,388.5) translate(107.09199999999998 22.675)"/><use xlink:href="#b" transform="matrix(1,0,0,1,346,422.5) translate(10 22.675)"/><use xlink:href="#p" transform="matrix(1,0,0,1,346,422.5) translate(37.504 22.675)"/><use xlink:href="#f" transform="matrix(1,0,0,1,346,422.5) translate(82.34199999999998 22.675)"/><use xlink:href="#g" transform="matrix(1,0,0,1,346,456.5) translate(10 22.675)"/><use xlink:href="#q" transform="matrix(1,0,0,1,346,456.5) translate(36.01 22.675)"/><path d="M341 556h200v210H341z" fill="#c1e4f7"/><path d="M341 556h200v40H341z" fill="#9ab6c6"/><path d="M341 556h200v210H341zM341 596h200" stroke="#3d4752" stroke-width="2" fill="none"/><use xlink:href="#r" transform="matrix(1,0,0,1,351,556) translate(10 28.175)"/><use xlink:href="#s" transform="matrix(1,0,0,1,346,598.5) translate(10 22.675)"/><use xlink:href="#d" transform="matrix(1,0,0,1,346,598.5) translate(79.47999999999999 22.675)"/><use xlink:href="#b" transform="matrix(1,0,0,1,346,632.5) translate(10 22.675)"/><use xlink:href="#t" transform="matrix(1,0,0,1,346,632.5) translate(37.504 22.675)"/><use xlink:href="#g" transform="matrix(1,0,0,1,346,666.5) translate(10 22.675)"/><use xlink:href="#u" transform="matrix(1,0,0,1,346,666.5) translate(36.01 22.675)"/><use xlink:href="#b" transform="matrix(1,0,0,1,346,700.5) translate(10 22.675)"/><use xlink:href="#o" transform="matrix(1,0,0,1,346,700.5) translate(37.504 22.675)"/><use xlink:href="#f" transform="matrix(1,0,0,1,346,700.5) translate(107.09199999999998 22.675)"/><use xlink:href="#b" transform="matrix(1,0,0,1,346,734.5) translate(10 22.675)"/><use xlink:href="#v" transform="matrix(1,0,0,1,346,734.5) translate(37.504 22.675)"/><path d="M621 40h219v176H621z" fill="#c1e4f7"/><path d="M621 40h219v40H621z" fill="#9ab6c6"/><path d="M621 40h219v176H621zM621 80h219" stroke="#3d4752" stroke-width="2" fill="none"/><use xlink:href="#w" transform="matrix(1,0,0,1,631,40) translate(10 28.175)"/><use xlink:href="#x" transform="matrix(1,0,0,1,626,82.5) translate(10 22.675)"/><use xlink:href="#d" transform="matrix(1,0,0,1,626,82.5) translate(151.57 22.675)"/><use xlink:href="#y" transform="matrix(1,0,0,1,626,116.5) translate(10 22.675)"/><use xlink:href="#z" transform="matrix(1,0,0,1,626,116.5) translate(37.504 22.675)"/><use xlink:href="#A" transform="matrix(1,0,0,1,626,116.5) translate(131.464 22.675)"/><use xlink:href="#y" transform="matrix(1,0,0,1,626,150.5) translate(10 22.675)"/><use xlink:href="#B" transform="matrix(1,0,0,1,626,150.5) translate(37.504 22.675)"/><use xlink:href="#A" transform="matrix(1,0,0,1,626,150.5) translate(82.34199999999998 22.675)"/><use xlink:href="#y" transform="matrix(1,0,0,1,626,184.5) translate(10 22.675)"/><use xlink:href="#C" transform="matrix(1,0,0,1,626,184.5) translate(37.504 22.675)"/><use xlink:href="#A" transform="matrix(1,0,0,1,626,184.5) translate(89.28999999999999 22.675)"/><path d="M621 500h200v108H621z" fill="#ffeca9"/><path d="M621 500h200v40H621z" fill="#ccbd87"/><path d="M621 500h200v108H621zM621 540h200" stroke="#666" stroke-width="2" fill="none"/><use xlink:href="#D" transform="matrix(1,0,0,1,631,500) translate(10 28.175)"/><use xlink:href="#b" transform="matrix(1,0,0,1,626,542.5) translate(10 22.675)"/><use xlink:href="#E" transform="matrix(1,0,0,1,626,542.5) translate(37.504 22.675)"/><use xlink:href="#d" transform="matrix(1,0,0,1,626,542.5) translate(113.93199999999999 22.675)"/><use xlink:href="#g" transform="matrix(1,0,0,1,626,576.5) translate(10 22.675)"/><use xlink:href="#F" transform="matrix(1,0,0,1,626,576.5) translate(36.01 22.675)"/><path d="M61 40h200v176H61z" fill="#c1e4f7"/><path d="M61 40h200v40H61z" fill="#9ab6c6"/><path d="M61 40h200v176H61zM61 80h200" stroke="#666" stroke-width="2" fill="none"/><use xlink:href="#G" transform="matrix(1,0,0,1,71,40) translate(10 28.175)"/><use xlink:href="#b" transform="matrix(1,0,0,1,66,82.5) translate(10 22.675)"/><use xlink:href="#H" transform="matrix(1,0,0,1,66,82.5) translate(37.504 22.675)"/><use xlink:href="#d" transform="matrix(1,0,0,1,66,82.5) translate(101.458 22.675)"/><use xlink:href="#g" transform="matrix(1,0,0,1,66,116.5) translate(10 22.675)"/><use xlink:href="#I" transform="matrix(1,0,0,1,66,116.5) translate(36.01 22.675)"/><use xlink:href="#g" transform="matrix(1,0,0,1,66,150.5) translate(10 22.675)"/><use xlink:href="#J" transform="matrix(1,0,0,1,66,150.5) translate(36.01 22.675)"/><use xlink:href="#b" transform="matrix(1,0,0,1,66,184.5) translate(10 22.675)"/><use xlink:href="#K" transform="matrix(1,0,0,1,66,184.5) translate(37.504 22.675)"/><use xlink:href="#f" transform="matrix(1,0,0,1,66,184.5) translate(73.684 22.675)"/><path d="M621 320h200v142H621z" fill="#c1e4f7"/><path d="M621 320h200v40H621z" fill="#9ab6c6"/><path d="M621 320h200v142H621zM621 360h200" stroke="#666" stroke-width="2" fill="none"/><use xlink:href="#L" transform="matrix(1,0,0,1,631,320) translate(10 28.175)"/><use xlink:href="#b" transform="matrix(1,0,0,1,626,362.5) translate(10 22.675)"/><use xlink:href="#M" transform="matrix(1,0,0,1,626,362.5) translate(37.504 22.675)"/><use xlink:href="#d" transform="matrix(1,0,0,1,626,362.5) translate(110.512 22.675)"/><use xlink:href="#b" transform="matrix(1,0,0,1,626,396.5) translate(10 22.675)"/><use xlink:href="#N" transform="matrix(1,0,0,1,626,396.5) translate(37.504 22.675)"/><use xlink:href="#b" transform="matrix(1,0,0,1,626,430.5) translate(10 22.675)"/><use xlink:href="#O" transform="matrix(1,0,0,1,626,430.5) translate(37.504 22.675)"/><use xlink:href="#f" transform="matrix(1,0,0,1,626,430.5) translate(89.28999999999999 22.675)"/><path d="M61 240h200v108H61z" fill="#ffeca9"/><path d="M61 240h200v40H61z" fill="#ccbd87"/><path d="M61 240h200v108H61zM61 280h200" stroke="#3d4752" stroke-width="2" fill="none"/><use xlink:href="#P" transform="matrix(1,0,0,1,71,240.00000000000006) translate(10 28.175)"/><use xlink:href="#b" transform="matrix(1,0,0,1,66,282.50000000000006) translate(10 22.675)"/><use xlink:href="#Q" transform="matrix(1,0,0,1,66,282.50000000000006) translate(37.504 22.675)"/><use xlink:href="#d" transform="matrix(1,0,0,1,66,282.50000000000006) translate(98.326 22.675)"/><use xlink:href="#g" transform="matrix(1,0,0,1,66,316.50000000000006) translate(10 22.675)"/><use xlink:href="#R" transform="matrix(1,0,0,1,66,316.50000000000006) translate(36.01 22.675)"/><path d="M61 600h200v108H61z" fill="#c1e4f7"/><path d="M61 600h200v40H61z" fill="#9ab6c6"/><path d="M61 600h200v108H61zM61 640h200" stroke="#3d4752" stroke-width="2" fill="none"/><use xlink:href="#S" transform="matrix(1,0,0,1,71,600) translate(10 28.175)"/><use xlink:href="#b" transform="matrix(1,0,0,1,66,642.5) translate(10 22.675)"/><use xlink:href="#T" transform="matrix(1,0,0,1,66,642.5) translate(37.504 22.675)"/><use xlink:href="#d" transform="matrix(1,0,0,1,66,642.5) translate(126.334 22.675)"/><use xlink:href="#g" transform="matrix(1,0,0,1,66,676.5) translate(10 22.675)"/><use xlink:href="#U" transform="matrix(1,0,0,1,66,676.5) translate(36.01 22.675)"/><path d="M61 420h200v108H61z" fill="#ffeca9"/><path d="M61 420h200v40H61z" fill="#ccbd87"/><path d="M61 420h200v108H61zM61 460h200" stroke="#3d4752" stroke-width="2" fill="none"/><use xlink:href="#V" transform="matrix(1,0,0,1,71,420.00000000000006) translate(10 28.175)"/><use xlink:href="#b" transform="matrix(1,0,0,1,66,462.50000000000006) translate(10 22.675)"/><use xlink:href="#W" transform="matrix(1,0,0,1,66,462.50000000000006) translate(37.504 22.675)"/><use xlink:href="#d" transform="matrix(1,0,0,1,66,462.50000000000006) translate(148.51000000000002 22.675)"/><use xlink:href="#g" transform="matrix(1,0,0,1,66,496.50000000000006) translate(10 22.675)"/><use xlink:href="#X" transform="matrix(1,0,0,1,66,496.50000000000006) translate(36.01 22.675)"/><path d="M562 437h20v175h-20" stroke="#999" stroke-width="2" fill="none"/><path d="M562 447v-20M542 437h20M562 622v-20M542 612h20" stroke="#999" stroke-width="2" fill="#fff"/><path d="M321 404v253.03h-39" stroke="#999" stroke-width="2" fill="none"/><path d="M319.5 394.06l1.05 19.98M340 403l-19.97 1.05M282 667.03v-20M262 657.03h20" stroke="#999" stroke-width="2" fill="#fff"/><path d="M320 369h-19v108.03h-19" stroke="#999" stroke-width="2" fill="none"/><path d="M320 359v20M340 369h-20M282 487.03v-20M262 477.03h20" stroke="#999" stroke-width="2" fill="#fff"/><path d="M600 131h-19V97h-19" stroke="#999" stroke-width="2" fill="none"/><path d="M600 121v20M620 131h-20M562 107V87M542 97h20" stroke="#999" stroke-width="2" fill="#fff"/><path d="M600 164.97h-19v447.55h-19" stroke="#999" stroke-width="2" fill="none"/><path d="M600 154.97v20M620 164.97h-20M562 622.52v-20M542 612.52h20" stroke="#999" stroke-width="2" fill="#fff"/><path d="M321 714.54v-57.5h-39" stroke="#999" stroke-width="2" fill="none"/><path d="M320.55 704.5l-1.05 19.98M340 715.54l-19.97-1.05M282 667.03v-20M262 657.03h20" stroke="#999" stroke-width="2" fill="#fff"/><path d="M40 199H20v98.03h20" stroke="#999" stroke-width="2" fill="none"/><path d="M40 189v20M60 199H40M40 287.03v20M60 297.03H40" stroke="#999" stroke-width="2" fill="#fff"/><path d="M320 131h-19V97h-19" stroke="#999" stroke-width="2" fill="none"/><path d="M320 121v20M340 131h-20M282 107V87M262 97h20" stroke="#999" stroke-width="2" fill="#fff"/><path d="M861 198.94h20v358.1h-39" stroke="#999" stroke-width="2" fill="none"/><path d="M861 208.94v-20M841 198.94h20M842 567.03v-20M822 557.03h20" stroke="#999" stroke-width="2" fill="#fff"/><path d="M842 445h20v112.33h-20" stroke="#999" stroke-width="2" fill="none"/><path d="M842 455v-20M822 445h20M842 567.33v-20M822 557.33h20" stroke="#999" stroke-width="2" fill="#fff"/><path d="M621 640h219v127H621z" fill="#ffeca9"/><path d="M621 640h219v40H621z" fill="#ccbd87"/><path d="M621 640h219v127H621zM621 680h219" stroke="#666" stroke-width="2" fill="none"/><g><use xlink:href="#Y" transform="matrix(1,0,0,1,631,640) translate(10 28.175)"/></g><g><use xlink:href="#b" transform="matrix(1,0,0,1,626,682.5) translate(10 32.175)"/><use xlink:href="#Z" transform="matrix(1,0,0,1,626,682.5) translate(37.504 32.175)"/><use xlink:href="#d" transform="matrix(1,0,0,1,626,682.5) translate(162.82000000000002 32.175)"/></g><g><use xlink:href="#g" transform="matrix(1,0,0,1,626,735.5) translate(10 22.675)"/><use xlink:href="#F" transform="matrix(1,0,0,1,626,735.5) translate(36.01 22.675)"/></g><path d="M562 749.88h19v-43.35h19" stroke="#999" stroke-width="2" fill="none"/><path d="M562 759.88v-20M542 749.88h20M600 696.53v20M620 706.53h-20" stroke="#999" stroke-width="2" fill="#fff"/><defs><path fill="#3d4752" d="M229-509c47 0 105 15 135 34v127h-26l-37-86c-64-27-173-19-165 61 8 84 122 76 177 120 33 26 64 57 62 116-3 100-76 148-174 148C136 11 92-5 50-31v-127h26l36 87c55 34 183 31 177-55-7-93-117-87-177-128-34-23-63-52-61-109 3-102 78-146 178-146" id="aa"/><path fill="#3d4752" d="M250 11C150 11 92-32 92-134v-294L5-454v-24l171-40v381c0 54 35 77 87 77 74 0 108-53 145-95v-273l-88-26v-24l168-40v436l83 27v23L408 10v-86c-38 42-83 87-158 87" id="ab"/><path fill="#3d4752" d="M324 11c-66 0-101-13-136-46v229l110 33v26H20v-26l88-33v-614l-88-27v-24l168-41v77c37-38 77-75 149-74 145 2 210 98 210 243 0 155-67 277-223 277zm-6-61c110 0 142-104 142-214 0-101-41-181-141-184-65-2-102 52-128 94l1 240c23 39 70 64 126 64" id="ac"/><path fill="#3d4752" d="M252-509c149 0 208 103 203 259H117c-1 108 29 194 135 194 63 0 113-26 147-60l44 43c-48 46-97 84-184 84C102 11 35-91 35-248c0-147 71-261 217-261zm126 200c19-124-147-176-220-93-20 23-30 59-37 93h257" id="ad"/><path fill="#3d4752" d="M316-434c-70 6-120 46-120 120v251l106 37V0H25v-26l88-36v-362l-92-27v-23l175-41v104c31-55 97-121 183-88v151h-26" id="ae"/><path fill="#3d4752" d="M309 11c-66 0-102-14-137-47L94 0v-659L0-687v-22l176-39v312c35-40 73-73 142-73 146 0 217 97 217 242 0 157-70 278-226 278zm-6-61c110 0 145-104 145-215 0-101-47-178-148-181-65-2-98 48-124 91v239c23 39 71 66 127 66" id="af"/><path fill="#3d4752" d="M25-481l177-41v459l83 37V0H31v-26l88-37v-368l-94-27v-23zm200-200c0 37-21 56-62 56-42 0-63-18-63-54 0-37 21-55 63-55 41 0 62 18 62 53" id="ag"/><path fill="#3d4752" d="M338-438c-74 0-103 54-140 95v280l78 37V0H26v-26l88-37v-360l-93-27v-23l177-41v91c34-39 85-86 153-86 100 1 162 43 162 145v301l88 37V0H346v-26l83-37v-298c-1-54-38-77-91-77" id="ah"/><path fill="#3d4752" d="M171-186c-28 9-72 68-16 82C280-73 468-83 468 67c0 156-143 209-304 189-82-10-142-52-142-145C22 27 92-8 149-37 93-44 7-71 46-139c18-31 57-50 88-68-72-42-81-200-12-260 44-38 127-63 198-37l158-15v34l-83 38c32 34 44 118 23 175-31 81-147 125-247 86zm38 159C146-1 71 69 114 158c30 63 162 55 218 18 29-19 55-47 51-93-7-88-92-94-174-110zm-29-235c60 75 184 20 169-81-9-64-29-114-99-116-98-3-122 132-70 197" id="ai"/><g id="a"><use transform="matrix(0.018,0,0,0.018,0,0)" xlink:href="#aa"/><use transform="matrix(0.018,0,0,0.018,7.6499999999999995,0)" xlink:href="#ab"/><use transform="matrix(0.018,0,0,0.018,18.198,0)" xlink:href="#ac"/><use transform="matrix(0.018,0,0,0.018,28.674,0)" xlink:href="#ad"/><use transform="matrix(0.018,0,0,0.018,37.584,0)" xlink:href="#ae"/><use transform="matrix(0.018,0,0,0.018,44.83800000000001,0)" xlink:href="#af"/><use transform="matrix(0.018,0,0,0.018,55.098,0)" xlink:href="#ad"/><use transform="matrix(0.018,0,0,0.018,64.008,0)" xlink:href="#ag"/><use transform="matrix(0.018,0,0,0.018,69.408,0)" xlink:href="#ah"/><use transform="matrix(0.018,0,0,0.018,80.406,0)" xlink:href="#ai"/></g><path fill="#3d4752" d="M337-34c-33 20-79 45-128 45-81 1-119-46-119-127v-315H4v-37l87-30v-131l83-30v161h145v67H173v306c1 40 13 70 55 70 28 0 64-17 80-30" id="aj"/><g id="b"><use transform="matrix(0.018,0,0,0.018,0,0)" xlink:href="#ag"/><use transform="matrix(0.018,0,0,0.018,5.3999999999999995,0)" xlink:href="#ah"/><use transform="matrix(0.018,0,0,0.018,16.398,0)" xlink:href="#aj"/></g><path fill="#3d4752" d="M0 125V75h500v50H0" id="ak"/><path fill="#3d4752" d="M255-509c65 0 107 14 141 47v-197l-94-28v-22c58-14 117-27 174-42v677l83 26v22L396 15c0-21-1-54 0-79-36 39-79 75-151 75C100 11 35-86 35-231c0-155 64-278 220-278zm141 125c-22-39-80-64-135-64-109 0-139 105-139 215 0 100 41 183 141 183 70 0 104-49 133-95v-239" id="al"/><g id="c"><use transform="matrix(0.018,0,0,0.018,0,0)" xlink:href="#aa"/><use transform="matrix(0.018,0,0,0.018,7.6499999999999995,0)" xlink:href="#ab"/><use transform="matrix(0.018,0,0,0.018,18.198,0)" xlink:href="#ac"/><use transform="matrix(0.018,0,0,0.018,28.674,0)" xlink:href="#ad"/><use transform="matrix(0.018,0,0,0.018,37.584,0)" xlink:href="#ae"/><use transform="matrix(0.018,0,0,0.018,44.83800000000001,0)" xlink:href="#af"/><use transform="matrix(0.018,0,0,0.018,55.098,0)" xlink:href="#ad"/><use transform="matrix(0.018,0,0,0.018,64.008,0)" xlink:href="#ag"/><use transform="matrix(0.018,0,0,0.018,69.408,0)" xlink:href="#ah"/><use transform="matrix(0.018,0,0,0.018,80.406,0)" xlink:href="#ai"/><use transform="matrix(0.018,0,0,0.018,89.01,0)" xlink:href="#ak"/><use transform="matrix(0.018,0,0,0.018,98.01,0)" xlink:href="#ag"/><use transform="matrix(0.018,0,0,0.018,103.41000000000001,0)" xlink:href="#al"/></g><path fill="#3d4752" d="M319-705c-93 98-165 230-165 413 0 171 80 282 159 381l-57 35C145 0 36-181 87-422c28-134 97-229 175-317" id="am"/><path fill="#3d4752" d="M25-711l178-41v689l94 37V0H31v-26l88-37v-598l-94-27v-23zm276 430L490-56l77 30V0H425L208-260l188-201-69-28v-24h239v24l-102 33" id="an"/><path fill="#3d4752" d="M69-739c111 124 220 305 169 546C210-59 141 36 63 124L6 90C99-8 171-140 171-323c0-171-80-282-159-381" id="ao"/><g id="d"><use transform="matrix(0.018,0,0,0.018,0,0)" xlink:href="#am"/><use transform="matrix(0.018,0,0,0.018,5.85,0)" xlink:href="#ac"/><use transform="matrix(0.018,0,0,0.018,16.326,0)" xlink:href="#an"/><use transform="matrix(0.018,0,0,0.018,26.442000000000004,0)" xlink:href="#ao"/></g><g id="e"><use transform="matrix(0.018,0,0,0.018,0,0)" xlink:href="#ab"/><use transform="matrix(0.018,0,0,0.018,10.548,0)" xlink:href="#aa"/><use transform="matrix(0.018,0,0,0.018,18.198,0)" xlink:href="#ad"/><use transform="matrix(0.018,0,0,0.018,27.108,0)" xlink:href="#ae"/></g><path fill="#3d4752" d="M116-498c-10-162 38-266 193-264h66v148h-26l-37-88c-104-4-119 93-113 204h119v68H198v367l110 37V0H27v-26l88-37v-367H26v-38" id="ap"/><g id="f"><use transform="matrix(0.018,0,0,0.018,0,0)" xlink:href="#am"/><use transform="matrix(0.018,0,0,0.018,5.85,0)" xlink:href="#ap"/><use transform="matrix(0.018,0,0,0.018,12.041999999999996,0)" xlink:href="#an"/><use transform="matrix(0.018,0,0,0.018,22.157999999999998,0)" xlink:href="#ao"/></g><g id="g"><use transform="matrix(0.018,0,0,0.018,0,0)" xlink:href="#aa"/><use transform="matrix(0.018,0,0,0.018,7.6499999999999995,0)" xlink:href="#aj"/><use transform="matrix(0.018,0,0,0.018,13.806,0)" xlink:href="#ae"/></g><path fill="#3d4752" d="M233-514c87 3 156 45 156 132v302l83 27v23L310 12v-71c-35 38-70 69-138 70C85 12 27-46 30-134c4-141 149-158 281-173-1-16 1-41 0-60-1-92-140-105-204-56l-36 86H45c1-38-1-78 1-114 49-38 100-66 187-63zm77 261c-95 7-197 18-199 118-1 55 31 89 86 87 57-2 84-40 113-72v-133" id="aq"/><path fill="#3d4752" d="M330-441c-71 2-99 56-135 95v283l83 37V0H27v-26l87-36v-361l-93-27v-23l174-41v90c37-40 87-85 159-85 64 1 125 34 134 93 42-42 86-91 165-93 99-3 146 54 145 151v295l89 37V0H632v-26l82-36v-300c1-48-32-81-80-79-71 4-99 57-137 97l1 281 83 37V0H338v-26l76-36v-299c1-48-37-82-84-80" id="ar"/><g id="h"><use transform="matrix(0.018,0,0,0.018,0,0)" xlink:href="#ap"/><use transform="matrix(0.018,0,0,0.018,6.191999999999999,0)" xlink:href="#ag"/><use transform="matrix(0.018,0,0,0.018,11.591999999999999,0)" xlink:href="#ae"/><use transform="matrix(0.018,0,0,0.018,18.846,0)" xlink:href="#aa"/><use transform="matrix(0.018,0,0,0.018,26.495999999999995,0)" xlink:href="#aj"/><use transform="matrix(0.018,0,0,0.018,32.651999999999994,0)" xlink:href="#ah"/><use transform="matrix(0.018,0,0,0.018,43.64999999999999,0)" xlink:href="#aq"/><use transform="matrix(0.018,0,0,0.018,52.32599999999999,0)" xlink:href="#ar"/><use transform="matrix(0.018,0,0,0.018,68.472,0)" xlink:href="#ad"/></g><path fill="#3d4752" d="M25-711l178-41v689l94 37V0H31v-26l88-37v-598l-94-27v-23" id="as"/><g id="i"><use transform="matrix(0.018,0,0,0.018,0,0)" xlink:href="#as"/><use transform="matrix(0.018,0,0,0.018,5.526,0)" xlink:href="#aq"/><use transform="matrix(0.018,0,0,0.018,14.202000000000002,0)" xlink:href="#aa"/><use transform="matrix(0.018,0,0,0.018,21.851999999999997,0)" xlink:href="#aj"/><use transform="matrix(0.018,0,0,0.018,28.008,0)" xlink:href="#ah"/><use transform="matrix(0.018,0,0,0.018,39.006,0)" xlink:href="#aq"/><use transform="matrix(0.018,0,0,0.018,47.682,0)" xlink:href="#ar"/><use transform="matrix(0.018,0,0,0.018,63.828,0)" xlink:href="#ad"/></g><path fill="#3d4752" d="M343-438c-73 0-104 54-141 95v280l78 37V0H30v-26l88-37v-600l-93-27v-23l177-41v331c34-39 86-86 154-86 100 1 161 43 161 145v301l88 37V0H350v-26l83-37v-298c-1-54-38-77-90-77" id="at"/><g id="j"><use transform="matrix(0.018,0,0,0.018,0,0)" xlink:href="#aa"/><use transform="matrix(0.018,0,0,0.018,7.6499999999999995,0)" xlink:href="#aj"/><use transform="matrix(0.018,0,0,0.018,13.806,0)" xlink:href="#ae"/><use transform="matrix(0.018,0,0,0.018,20.844,0)" xlink:href="#ad"/><use transform="matrix(0.018,0,0,0.018,29.754,0)" xlink:href="#ah"/><use transform="matrix(0.018,0,0,0.018,40.752,0)" xlink:href="#ai"/><use transform="matrix(0.018,0,0,0.018,49.356,0)" xlink:href="#aj"/><use transform="matrix(0.018,0,0,0.018,55.512,0)" xlink:href="#at"/></g><path fill="#3d4752" d="M173-486c82-41 198-28 258 29v121h-26l-37-87c-26-17-56-25-95-25-109 0-151 95-151 205 0 107 52 191 158 191 55 0 83-24 113-54l47 42c-40 40-91 76-173 75C110 8 35-93 35-243c0-118 57-202 138-243" id="au"/><path fill="#3d4752" d="M276-509c158 0 231 103 231 260 0 153-81 260-233 260C115 11 35-90 35-249c0-153 87-260 241-260zm-1 459c107 0 145-91 145-199s-37-199-145-199-153 91-153 199c0 109 43 199 153 199" id="av"/><g id="k"><use transform="matrix(0.018,0,0,0.018,0,0)" xlink:href="#au"/><use transform="matrix(0.018,0,0,0.018,8.37,0)" xlink:href="#av"/><use transform="matrix(0.018,0,0,0.018,18.125999999999998,0)" xlink:href="#ah"/><use transform="matrix(0.018,0,0,0.018,29.123999999999995,0)" xlink:href="#aa"/><use transform="matrix(0.018,0,0,0.018,36.773999999999994,0)" xlink:href="#aj"/><use transform="matrix(0.018,0,0,0.018,42.929999999999986,0)" xlink:href="#ag"/><use transform="matrix(0.018,0,0,0.018,48.32999999999999,0)" xlink:href="#aj"/><use transform="matrix(0.018,0,0,0.018,54.48599999999999,0)" xlink:href="#ab"/><use transform="matrix(0.018,0,0,0.018,65.03399999999999,0)" xlink:href="#aj"/><use transform="matrix(0.018,0,0,0.018,71.19,0)" xlink:href="#ag"/><use transform="matrix(0.018,0,0,0.018,76.59000000000002,0)" xlink:href="#av"/><use transform="matrix(0.018,0,0,0.018,86.346,0)" xlink:href="#ah"/></g><path fill="#3d4752" d="M144-459c47 125 101 243 139 377 35-130 83-246 123-370l-69-35v-26h210v26l-61 35C419-263 339-36 271 135c-33 87-88 133-212 123v-59c68 6 106-10 127-60 18-42 35-96 50-140L54-459l-64-28v-26h227v26" id="aw"/><g id="l"><use transform="matrix(0.018,0,0,0.018,0,0)" xlink:href="#aq"/><use transform="matrix(0.018,0,0,0.018,8.676,0)" xlink:href="#ai"/><use transform="matrix(0.018,0,0,0.018,17.28,0)" xlink:href="#ag"/><use transform="matrix(0.018,0,0,0.018,22.68,0)" xlink:href="#as"/><use transform="matrix(0.018,0,0,0.018,28.206,0)" xlink:href="#ag"/><use transform="matrix(0.018,0,0,0.018,33.606,0)" xlink:href="#aj"/><use transform="matrix(0.018,0,0,0.018,39.762,0)" xlink:href="#aw"/></g><g id="m"><use transform="matrix(0.018,0,0,0.018,0,0)" xlink:href="#ag"/><use transform="matrix(0.018,0,0,0.018,5.3999999999999995,0)" xlink:href="#ah"/><use transform="matrix(0.018,0,0,0.018,16.398,0)" xlink:href="#aj"/><use transform="matrix(0.018,0,0,0.018,22.554,0)" xlink:href="#ad"/><use transform="matrix(0.018,0,0,0.018,31.464,0)" xlink:href="#as"/><use transform="matrix(0.018,0,0,0.018,36.989999999999995,0)" xlink:href="#as"/><use transform="matrix(0.018,0,0,0.018,42.51599999999999,0)" xlink:href="#ag"/><use transform="matrix(0.018,0,0,0.018,47.91599999999999,0)" xlink:href="#ai"/><use transform="matrix(0.018,0,0,0.018,56.51999999999999,0)" xlink:href="#ad"/><use transform="matrix(0.018,0,0,0.018,65.42999999999999,0)" xlink:href="#ah"/><use transform="matrix(0.018,0,0,0.018,76.428,0)" xlink:href="#au"/><use transform="matrix(0.018,0,0,0.018,84.79800000000002,0)" xlink:href="#ad"/></g><g id="n"><use transform="matrix(0.018,0,0,0.018,0,0)" xlink:href="#aq"/><use transform="matrix(0.018,0,0,0.018,8.676,0)" xlink:href="#as"/><use transform="matrix(0.018,0,0,0.018,14.202000000000002,0)" xlink:href="#ag"/><use transform="matrix(0.018,0,0,0.018,19.601999999999997,0)" xlink:href="#ai"/><use transform="matrix(0.018,0,0,0.018,28.206,0)" xlink:href="#ah"/><use transform="matrix(0.018,0,0,0.018,39.20399999999999,0)" xlink:href="#ar"/><use transform="matrix(0.018,0,0,0.018,55.349999999999994,0)" xlink:href="#ad"/><use transform="matrix(0.018,0,0,0.018,64.25999999999999,0)" xlink:href="#ah"/><use transform="matrix(0.018,0,0,0.018,75.258,0)" xlink:href="#aj"/><use transform="matrix(0.018,0,0,0.018,81.41399999999999,0)" xlink:href="#am"/><use transform="matrix(0.018,0,0,0.018,87.264,0)" xlink:href="#ap"/><use transform="matrix(0.018,0,0,0.018,93.45599999999999,0)" xlink:href="#an"/><use transform="matrix(0.018,0,0,0.018,103.57199999999999,0)" xlink:href="#ao"/></g><g id="o"><use transform="matrix(0.018,0,0,0.018,0,0)" xlink:href="#as"/><use transform="matrix(0.018,0,0,0.018,5.526,0)" xlink:href="#av"/><use transform="matrix(0.018,0,0,0.018,15.281999999999998,0)" xlink:href="#au"/><use transform="matrix(0.018,0,0,0.018,23.651999999999997,0)" xlink:href="#aq"/><use transform="matrix(0.018,0,0,0.018,32.327999999999996,0)" xlink:href="#aj"/><use transform="matrix(0.018,0,0,0.018,38.483999999999995,0)" xlink:href="#ag"/><use transform="matrix(0.018,0,0,0.018,43.88399999999999,0)" xlink:href="#av"/><use transform="matrix(0.018,0,0,0.018,53.63999999999999,0)" xlink:href="#ah"/></g><g id="p"><use transform="matrix(0.018,0,0,0.018,0,0)" xlink:href="#aj"/><use transform="matrix(0.018,0,0,0.018,6.156,0)" xlink:href="#ad"/><use transform="matrix(0.018,0,0,0.018,15.065999999999999,0)" xlink:href="#aq"/><use transform="matrix(0.018,0,0,0.018,23.741999999999997,0)" xlink:href="#ar"/></g><g id="q"><use transform="matrix(0.018,0,0,0.018,0,0)" xlink:href="#aq"/><use transform="matrix(0.018,0,0,0.018,8.676,0)" xlink:href="#af"/><use transform="matrix(0.018,0,0,0.018,18.936,0)" xlink:href="#ag"/><use transform="matrix(0.018,0,0,0.018,24.336,0)" xlink:href="#as"/><use transform="matrix(0.018,0,0,0.018,29.862,0)" xlink:href="#ag"/><use transform="matrix(0.018,0,0,0.018,35.262,0)" xlink:href="#aj"/><use transform="matrix(0.018,0,0,0.018,41.418,0)" xlink:href="#ag"/><use transform="matrix(0.018,0,0,0.018,46.818,0)" xlink:href="#ad"/><use transform="matrix(0.018,0,0,0.018,55.727999999999994,0)" xlink:href="#aa"/></g><g id="r"><use transform="matrix(0.018,0,0,0.018,0,0)" xlink:href="#aj"/><use transform="matrix(0.018,0,0,0.018,6.156,0)" xlink:href="#ad"/><use transform="matrix(0.018,0,0,0.018,15.065999999999999,0)" xlink:href="#aq"/><use transform="matrix(0.018,0,0,0.018,23.741999999999997,0)" xlink:href="#ar"/></g><g id="s"><use transform="matrix(0.018,0,0,0.018,0,0)" xlink:href="#aj"/><use transform="matrix(0.018,0,0,0.018,6.156,0)" xlink:href="#ad"/><use transform="matrix(0.018,0,0,0.018,15.065999999999999,0)" xlink:href="#aq"/><use transform="matrix(0.018,0,0,0.018,23.741999999999997,0)" xlink:href="#ar"/><use transform="matrix(0.018,0,0,0.018,39.88799999999999,0)" xlink:href="#ak"/><use transform="matrix(0.018,0,0,0.018,48.88799999999999,0)" xlink:href="#ag"/><use transform="matrix(0.018,0,0,0.018,54.28799999999999,0)" xlink:href="#al"/></g><g id="t"><use transform="matrix(0.018,0,0,0.018,0,0)" xlink:href="#aj"/><use transform="matrix(0.018,0,0,0.018,6.156,0)" xlink:href="#ad"/><use transform="matrix(0.018,0,0,0.018,15.065999999999999,0)" xlink:href="#aq"/><use transform="matrix(0.018,0,0,0.018,23.741999999999997,0)" xlink:href="#ar"/><use transform="matrix(0.018,0,0,0.018,39.88799999999999,0)" xlink:href="#ak"/><use transform="matrix(0.018,0,0,0.018,48.88799999999999,0)" xlink:href="#as"/><use transform="matrix(0.018,0,0,0.018,54.41399999999999,0)" xlink:href="#ad"/><use transform="matrix(0.018,0,0,0.018,63.323999999999984,0)" xlink:href="#aq"/><use transform="matrix(0.018,0,0,0.018,71.99999999999999,0)" xlink:href="#al"/><use transform="matrix(0.018,0,0,0.018,82.24199999999999,0)" xlink:href="#ad"/><use transform="matrix(0.018,0,0,0.018,91.15199999999999,0)" xlink:href="#ae"/><use transform="matrix(0.018,0,0,0.018,98.40599999999999,0)" xlink:href="#am"/><use transform="matrix(0.018,0,0,0.018,104.25599999999999,0)" xlink:href="#ap"/><use transform="matrix(0.018,0,0,0.018,110.44799999999998,0)" xlink:href="#an"/><use transform="matrix(0.018,0,0,0.018,120.56399999999998,0)" xlink:href="#ao"/></g><g id="u"><use transform="matrix(0.018,0,0,0.018,0,0)" xlink:href="#ah"/><use transform="matrix(0.018,0,0,0.018,10.998,0)" xlink:href="#aq"/><use transform="matrix(0.018,0,0,0.018,19.674,0)" xlink:href="#ar"/><use transform="matrix(0.018,0,0,0.018,35.81999999999999,0)" xlink:href="#ad"/></g><g id="v"><use transform="matrix(0.018,0,0,0.018,0,0)" xlink:href="#aj"/><use transform="matrix(0.018,0,0,0.018,6.156,0)" xlink:href="#ad"/><use transform="matrix(0.018,0,0,0.018,15.065999999999999,0)" xlink:href="#aq"/><use transform="matrix(0.018,0,0,0.018,23.741999999999997,0)" xlink:href="#ar"/><use transform="matrix(0.018,0,0,0.018,39.88799999999999,0)" xlink:href="#ak"/><use transform="matrix(0.018,0,0,0.018,48.88799999999999,0)" xlink:href="#aa"/><use transform="matrix(0.018,0,0,0.018,56.53799999999999,0)" xlink:href="#aj"/><use transform="matrix(0.018,0,0,0.018,62.69399999999999,0)" xlink:href="#aq"/><use transform="matrix(0.018,0,0,0.018,71.36999999999999,0)" xlink:href="#aj"/><use transform="matrix(0.018,0,0,0.018,77.526,0)" xlink:href="#ab"/><use transform="matrix(0.018,0,0,0.018,88.074,0)" xlink:href="#aa"/><use transform="matrix(0.018,0,0,0.018,95.724,0)" xlink:href="#am"/><use transform="matrix(0.018,0,0,0.018,101.574,0)" xlink:href="#ap"/><use transform="matrix(0.018,0,0,0.018,107.76599999999999,0)" xlink:href="#an"/><use transform="matrix(0.018,0,0,0.018,117.88199999999999,0)" xlink:href="#ao"/></g><path fill="#3d4752" d="M269-509c62-2 98 19 130 48l79-37v691l87 34v26H308v-26l88-34V-63c-34 39-89 74-156 74C96 11 35-88 35-232c0-157 74-272 234-277zm126 126c-24-39-64-65-120-65-112 0-153 103-153 214 0 100 37 184 136 184 71 0 108-49 137-95v-238" id="ax"/><g id="w"><use transform="matrix(0.018,0,0,0.018,0,0)" xlink:href="#aj"/><use transform="matrix(0.018,0,0,0.018,6.156,0)" xlink:href="#ad"/><use transform="matrix(0.018,0,0,0.018,15.065999999999999,0)" xlink:href="#aq"/><use transform="matrix(0.018,0,0,0.018,23.741999999999997,0)" xlink:href="#ar"/><use transform="matrix(0.018,0,0,0.018,39.88799999999999,0)" xlink:href="#ak"/><use transform="matrix(0.018,0,0,0.018,48.88799999999999,0)" xlink:href="#aj"/><use transform="matrix(0.018,0,0,0.018,55.04399999999999,0)" xlink:href="#ae"/><use transform="matrix(0.018,0,0,0.018,62.29799999999999,0)" xlink:href="#aq"/><use transform="matrix(0.018,0,0,0.018,70.97399999999999,0)" xlink:href="#ah"/><use transform="matrix(0.018,0,0,0.018,81.972,0)" xlink:href="#aa"/><use transform="matrix(0.018,0,0,0.018,89.622,0)" xlink:href="#ap"/><use transform="matrix(0.018,0,0,0.018,95.814,0)" xlink:href="#ad"/><use transform="matrix(0.018,0,0,0.018,104.72399999999999,0)" xlink:href="#ae"/><use transform="matrix(0.018,0,0,0.018,111.978,0)" xlink:href="#ak"/><use transform="matrix(0.018,0,0,0.018,120.978,0)" xlink:href="#ae"/><use transform="matrix(0.018,0,0,0.018,128.016,0)" xlink:href="#ad"/><use transform="matrix(0.018,0,0,0.018,136.926,0)" xlink:href="#ax"/><use transform="matrix(0.018,0,0,0.018,147.11399999999998,0)" xlink:href="#ab"/><use transform="matrix(0.018,0,0,0.018,157.66199999999998,0)" xlink:href="#ad"/><use transform="matrix(0.018,0,0,0.018,166.57199999999997,0)" xlink:href="#aa"/><use transform="matrix(0.018,0,0,0.018,174.22199999999998,0)" xlink:href="#aj"/></g><g id="x"><use transform="matrix(0.018,0,0,0.018,0,0)" xlink:href="#aj"/><use transform="matrix(0.018,0,0,0.018,6.156,0)" xlink:href="#ad"/><use transform="matrix(0.018,0,0,0.018,15.065999999999999,0)" xlink:href="#aq"/><use transform="matrix(0.018,0,0,0.018,23.741999999999997,0)" xlink:href="#ar"/><use transform="matrix(0.018,0,0,0.018,39.88799999999999,0)" xlink:href="#ak"/><use transform="matrix(0.018,0,0,0.018,48.88799999999999,0)" xlink:href="#aj"/><use transform="matrix(0.018,0,0,0.018,55.04399999999999,0)" xlink:href="#ae"/><use transform="matrix(0.018,0,0,0.018,62.29799999999999,0)" xlink:href="#aq"/><use transform="matrix(0.018,0,0,0.018,70.97399999999999,0)" xlink:href="#ah"/><use transform="matrix(0.018,0,0,0.018,81.972,0)" xlink:href="#aa"/><use transform="matrix(0.018,0,0,0.018,89.622,0)" xlink:href="#ap"/><use transform="matrix(0.018,0,0,0.018,95.814,0)" xlink:href="#ad"/><use transform="matrix(0.018,0,0,0.018,104.72399999999999,0)" xlink:href="#ae"/><use transform="matrix(0.018,0,0,0.018,111.978,0)" xlink:href="#ak"/><use transform="matrix(0.018,0,0,0.018,120.978,0)" xlink:href="#ag"/><use transform="matrix(0.018,0,0,0.018,126.378,0)" xlink:href="#al"/></g><g id="y"><use transform="matrix(0.018,0,0,0.018,0,0)" xlink:href="#ag"/><use transform="matrix(0.018,0,0,0.018,5.3999999999999995,0)" xlink:href="#ah"/><use transform="matrix(0.018,0,0,0.018,16.398,0)" xlink:href="#aj"/></g><g id="z"><use transform="matrix(0.018,0,0,0.018,0,0)" xlink:href="#aa"/><use transform="matrix(0.018,0,0,0.018,7.6499999999999995,0)" xlink:href="#ab"/><use transform="matrix(0.018,0,0,0.018,18.198,0)" xlink:href="#ac"/><use transform="matrix(0.018,0,0,0.018,28.674,0)" xlink:href="#ad"/><use transform="matrix(0.018,0,0,0.018,37.584,0)" xlink:href="#ae"/><use transform="matrix(0.018,0,0,0.018,44.83800000000001,0)" xlink:href="#af"/><use transform="matrix(0.018,0,0,0.018,55.098,0)" xlink:href="#ad"/><use transform="matrix(0.018,0,0,0.018,64.008,0)" xlink:href="#ag"/><use transform="matrix(0.018,0,0,0.018,69.408,0)" xlink:href="#ah"/><use transform="matrix(0.018,0,0,0.018,80.406,0)" xlink:href="#ai"/></g><g id="A"><use transform="matrix(0.018,0,0,0.018,0,0)" xlink:href="#am"/><use transform="matrix(0.018,0,0,0.018,5.85,0)" xlink:href="#ap"/><use transform="matrix(0.018,0,0,0.018,12.041999999999996,0)" xlink:href="#an"/><use transform="matrix(0.018,0,0,0.018,22.157999999999998,0)" xlink:href="#ao"/></g><g id="B"><use transform="matrix(0.018,0,0,0.018,0,0)" xlink:href="#aj"/><use transform="matrix(0.018,0,0,0.018,6.156,0)" xlink:href="#ad"/><use transform="matrix(0.018,0,0,0.018,15.065999999999999,0)" xlink:href="#aq"/><use transform="matrix(0.018,0,0,0.018,23.741999999999997,0)" xlink:href="#ar"/></g><g id="C"><use transform="matrix(0.018,0,0,0.018,0,0)" xlink:href="#aa"/><use transform="matrix(0.018,0,0,0.018,7.6499999999999995,0)" xlink:href="#aj"/><use transform="matrix(0.018,0,0,0.018,13.806,0)" xlink:href="#aq"/><use transform="matrix(0.018,0,0,0.018,22.482,0)" xlink:href="#aj"/><use transform="matrix(0.018,0,0,0.018,28.637999999999998,0)" xlink:href="#ab"/><use transform="matrix(0.018,0,0,0.018,39.186,0)" xlink:href="#aa"/></g><g id="D"><use transform="matrix(0.018,0,0,0.018,0,0)" xlink:href="#ae"/><use transform="matrix(0.018,0,0,0.018,7.037999999999999,0)" xlink:href="#ad"/><use transform="matrix(0.018,0,0,0.018,15.948,0)" xlink:href="#ax"/><use transform="matrix(0.018,0,0,0.018,26.136,0)" xlink:href="#ab"/><use transform="matrix(0.018,0,0,0.018,36.684,0)" xlink:href="#ad"/><use transform="matrix(0.018,0,0,0.018,45.593999999999994,0)" xlink:href="#aa"/><use transform="matrix(0.018,0,0,0.018,53.24399999999999,0)" xlink:href="#aj"/><use transform="matrix(0.018,0,0,0.018,59.4,0)" xlink:href="#ak"/><use transform="matrix(0.018,0,0,0.018,68.39999999999999,0)" xlink:href="#aa"/><use transform="matrix(0.018,0,0,0.018,76.05,0)" xlink:href="#aj"/><use transform="matrix(0.018,0,0,0.018,82.206,0)" xlink:href="#aq"/><use transform="matrix(0.018,0,0,0.018,90.882,0)" xlink:href="#aj"/><use transform="matrix(0.018,0,0,0.018,97.03800000000001,0)" xlink:href="#ab"/><use transform="matrix(0.018,0,0,0.018,107.58600000000001,0)" xlink:href="#aa"/></g><g id="E"><use transform="matrix(0.018,0,0,0.018,0,0)" xlink:href="#aa"/><use transform="matrix(0.018,0,0,0.018,7.6499999999999995,0)" xlink:href="#aj"/><use transform="matrix(0.018,0,0,0.018,13.806,0)" xlink:href="#aq"/><use transform="matrix(0.018,0,0,0.018,22.482,0)" xlink:href="#aj"/><use transform="matrix(0.018,0,0,0.018,28.637999999999998,0)" xlink:href="#ab"/><use transform="matrix(0.018,0,0,0.018,39.186,0)" xlink:href="#aa"/><use transform="matrix(0.018,0,0,0.018,46.836,0)" xlink:href="#ak"/><use transform="matrix(0.018,0,0,0.018,55.836,0)" xlink:href="#ag"/><use transform="matrix(0.018,0,0,0.018,61.236,0)" xlink:href="#al"/></g><g id="F"><use transform="matrix(0.018,0,0,0.018,0,0)" xlink:href="#aa"/><use transform="matrix(0.018,0,0,0.018,7.6499999999999995,0)" xlink:href="#aj"/><use transform="matrix(0.018,0,0,0.018,13.806,0)" xlink:href="#aq"/><use transform="matrix(0.018,0,0,0.018,22.482,0)" xlink:href="#aj"/><use transform="matrix(0.018,0,0,0.018,28.637999999999998,0)" xlink:href="#ab"/><use transform="matrix(0.018,0,0,0.018,39.186,0)" xlink:href="#aa"/><use transform="matrix(0.018,0,0,0.018,46.836,0)" xlink:href="#ak"/><use transform="matrix(0.018,0,0,0.018,55.836,0)" xlink:href="#ah"/><use transform="matrix(0.018,0,0,0.018,66.834,0)" xlink:href="#aq"/><use transform="matrix(0.018,0,0,0.018,75.51,0)" xlink:href="#ar"/><use transform="matrix(0.018,0,0,0.018,91.656,0)" xlink:href="#ad"/></g><path fill="#3d4752" d="M339 11C160 11 82-76 82-253v-376l-87-37v-26h264v26l-89 37v388c0 121 46 182 170 182 130 0 179-79 179-207v-363l-86-37v-26h256v26l-89 37c0 118 1 239 1 355 0 182-78 285-262 285" id="ay"/><g id="G"><use transform="matrix(0.018,0,0,0.018,0,0)" xlink:href="#ay"/><use transform="matrix(0.018,0,0,0.018,12.312,0)" xlink:href="#aa"/><use transform="matrix(0.018,0,0,0.018,19.962,0)" xlink:href="#ad"/><use transform="matrix(0.018,0,0,0.018,28.872000000000003,0)" xlink:href="#ae"/></g><g id="H"><use transform="matrix(0.018,0,0,0.018,0,0)" xlink:href="#ab"/><use transform="matrix(0.018,0,0,0.018,10.548,0)" xlink:href="#aa"/><use transform="matrix(0.018,0,0,0.018,18.198,0)" xlink:href="#ad"/><use transform="matrix(0.018,0,0,0.018,27.108,0)" xlink:href="#ae"/><use transform="matrix(0.018,0,0,0.018,34.362,0)" xlink:href="#ak"/><use transform="matrix(0.018,0,0,0.018,43.362,0)" xlink:href="#ag"/><use transform="matrix(0.018,0,0,0.018,48.76200000000001,0)" xlink:href="#al"/></g><g id="I"><use transform="matrix(0.018,0,0,0.018,0,0)" xlink:href="#ab"/><use transform="matrix(0.018,0,0,0.018,10.548,0)" xlink:href="#aa"/><use transform="matrix(0.018,0,0,0.018,18.198,0)" xlink:href="#ad"/><use transform="matrix(0.018,0,0,0.018,27.108,0)" xlink:href="#ae"/><use transform="matrix(0.018,0,0,0.018,34.362,0)" xlink:href="#ah"/><use transform="matrix(0.018,0,0,0.018,45.36,0)" xlink:href="#aq"/><use transform="matrix(0.018,0,0,0.018,54.036,0)" xlink:href="#ar"/><use transform="matrix(0.018,0,0,0.018,70.182,0)" xlink:href="#ad"/></g><path fill="#3d4752" d="M141-456c35 126 81 241 105 378 39-150 90-289 134-434h83c42 145 93 282 127 436 28-133 74-250 110-375l-69-34v-26h211v26l-60 33L624 0h-85c-40-145-95-275-123-432-35 154-89 287-133 432h-85L53-456l-63-29v-26h225v26" id="az"/><g id="J"><use transform="matrix(0.018,0,0,0.018,0,0)" xlink:href="#ac"/><use transform="matrix(0.018,0,0,0.018,10.475999999999999,0)" xlink:href="#aq"/><use transform="matrix(0.018,0,0,0.018,19.152,0)" xlink:href="#aa"/><use transform="matrix(0.018,0,0,0.018,26.802,0)" xlink:href="#aa"/><use transform="matrix(0.018,0,0,0.018,34.452,0)" xlink:href="#az"/><use transform="matrix(0.018,0,0,0.018,49.337999999999994,0)" xlink:href="#av"/><use transform="matrix(0.018,0,0,0.018,59.093999999999994,0)" xlink:href="#ae"/><use transform="matrix(0.018,0,0,0.018,66.348,0)" xlink:href="#al"/></g><g id="K"><use transform="matrix(0.018,0,0,0.018,0,0)" xlink:href="#ae"/><use transform="matrix(0.018,0,0,0.018,7.037999999999999,0)" xlink:href="#av"/><use transform="matrix(0.018,0,0,0.018,16.793999999999997,0)" xlink:href="#as"/><use transform="matrix(0.018,0,0,0.018,22.319999999999997,0)" xlink:href="#ad"/></g><g id="L"><use transform="matrix(0.018,0,0,0.018,0,0)" xlink:href="#ac"/><use transform="matrix(0.018,0,0,0.018,10.475999999999999,0)" xlink:href="#ae"/><use transform="matrix(0.018,0,0,0.018,17.514,0)" xlink:href="#av"/><use transform="matrix(0.018,0,0,0.018,27.27,0)" xlink:href="#ar"/><use transform="matrix(0.018,0,0,0.018,43.416,0)" xlink:href="#av"/><use transform="matrix(0.018,0,0,0.018,53.172,0)" xlink:href="#aj"/><use transform="matrix(0.018,0,0,0.018,59.327999999999996,0)" xlink:href="#ag"/><use transform="matrix(0.018,0,0,0.018,64.728,0)" xlink:href="#av"/><use transform="matrix(0.018,0,0,0.018,74.484,0)" xlink:href="#ah"/><use transform="matrix(0.018,0,0,0.018,85.482,0)" xlink:href="#ak"/><use transform="matrix(0.018,0,0,0.018,94.482,0)" xlink:href="#ae"/><use transform="matrix(0.018,0,0,0.018,101.52000000000001,0)" xlink:href="#ad"/><use transform="matrix(0.018,0,0,0.018,110.43,0)" xlink:href="#ax"/><use transform="matrix(0.018,0,0,0.018,120.61800000000001,0)" xlink:href="#ab"/><use transform="matrix(0.018,0,0,0.018,131.166,0)" xlink:href="#ad"/><use transform="matrix(0.018,0,0,0.018,140.076,0)" xlink:href="#aa"/><use transform="matrix(0.018,0,0,0.018,147.726,0)" xlink:href="#aj"/></g><g id="M"><use transform="matrix(0.018,0,0,0.018,0,0)" xlink:href="#ac"/><use transform="matrix(0.018,0,0,0.018,10.475999999999999,0)" xlink:href="#ae"/><use transform="matrix(0.018,0,0,0.018,17.514,0)" xlink:href="#av"/><use transform="matrix(0.018,0,0,0.018,27.27,0)" xlink:href="#ar"/><use transform="matrix(0.018,0,0,0.018,43.416,0)" xlink:href="#ak"/><use transform="matrix(0.018,0,0,0.018,52.416,0)" xlink:href="#ag"/><use transform="matrix(0.018,0,0,0.018,57.815999999999995,0)" xlink:href="#al"/></g><g id="N"><use transform="matrix(0.018,0,0,0.018,0,0)" xlink:href="#aa"/><use transform="matrix(0.018,0,0,0.018,7.6499999999999995,0)" xlink:href="#ab"/><use transform="matrix(0.018,0,0,0.018,18.198,0)" xlink:href="#ac"/><use transform="matrix(0.018,0,0,0.018,28.674,0)" xlink:href="#ad"/><use transform="matrix(0.018,0,0,0.018,37.584,0)" xlink:href="#ae"/><use transform="matrix(0.018,0,0,0.018,44.83800000000001,0)" xlink:href="#af"/><use transform="matrix(0.018,0,0,0.018,55.098,0)" xlink:href="#ad"/><use transform="matrix(0.018,0,0,0.018,64.008,0)" xlink:href="#ag"/><use transform="matrix(0.018,0,0,0.018,69.408,0)" xlink:href="#ah"/><use transform="matrix(0.018,0,0,0.018,80.406,0)" xlink:href="#ai"/></g><g id="O"><use transform="matrix(0.018,0,0,0.018,0,0)" xlink:href="#aa"/><use transform="matrix(0.018,0,0,0.018,7.6499999999999995,0)" xlink:href="#aj"/><use transform="matrix(0.018,0,0,0.018,13.806,0)" xlink:href="#aq"/><use transform="matrix(0.018,0,0,0.018,22.482,0)" xlink:href="#aj"/><use transform="matrix(0.018,0,0,0.018,28.637999999999998,0)" xlink:href="#ab"/><use transform="matrix(0.018,0,0,0.018,39.186,0)" xlink:href="#aa"/></g><g id="P"><use transform="matrix(0.018,0,0,0.018,0,0)" xlink:href="#ae"/><use transform="matrix(0.018,0,0,0.018,7.037999999999999,0)" xlink:href="#av"/><use transform="matrix(0.018,0,0,0.018,16.793999999999997,0)" xlink:href="#as"/><use transform="matrix(0.018,0,0,0.018,22.319999999999997,0)" xlink:href="#ad"/></g><g id="Q"><use transform="matrix(0.018,0,0,0.018,0,0)" xlink:href="#ae"/><use transform="matrix(0.018,0,0,0.018,7.037999999999999,0)" xlink:href="#av"/><use transform="matrix(0.018,0,0,0.018,16.793999999999997,0)" xlink:href="#as"/><use transform="matrix(0.018,0,0,0.018,22.319999999999997,0)" xlink:href="#ad"/><use transform="matrix(0.018,0,0,0.018,31.229999999999997,0)" xlink:href="#ak"/><use transform="matrix(0.018,0,0,0.018,40.23,0)" xlink:href="#ag"/><use transform="matrix(0.018,0,0,0.018,45.629999999999995,0)" xlink:href="#al"/></g><g id="R"><use transform="matrix(0.018,0,0,0.018,0,0)" xlink:href="#ae"/><use transform="matrix(0.018,0,0,0.018,7.037999999999999,0)" xlink:href="#av"/><use transform="matrix(0.018,0,0,0.018,16.793999999999997,0)" xlink:href="#as"/><use transform="matrix(0.018,0,0,0.018,22.319999999999997,0)" xlink:href="#ad"/><use transform="matrix(0.018,0,0,0.018,31.229999999999997,0)" xlink:href="#ak"/><use transform="matrix(0.018,0,0,0.018,40.23,0)" xlink:href="#ah"/><use transform="matrix(0.018,0,0,0.018,51.227999999999994,0)" xlink:href="#aq"/><use transform="matrix(0.018,0,0,0.018,59.903999999999996,0)" xlink:href="#ar"/><use transform="matrix(0.018,0,0,0.018,76.05,0)" xlink:href="#ad"/></g><g id="S"><use transform="matrix(0.018,0,0,0.018,0,0)" xlink:href="#as"/><use transform="matrix(0.018,0,0,0.018,5.526,0)" xlink:href="#av"/><use transform="matrix(0.018,0,0,0.018,15.281999999999998,0)" xlink:href="#au"/><use transform="matrix(0.018,0,0,0.018,23.651999999999997,0)" xlink:href="#aq"/><use transform="matrix(0.018,0,0,0.018,32.327999999999996,0)" xlink:href="#aj"/><use transform="matrix(0.018,0,0,0.018,38.483999999999995,0)" xlink:href="#ag"/><use transform="matrix(0.018,0,0,0.018,43.88399999999999,0)" xlink:href="#av"/><use transform="matrix(0.018,0,0,0.018,53.63999999999999,0)" xlink:href="#ah"/></g><g id="T"><use transform="matrix(0.018,0,0,0.018,0,0)" xlink:href="#as"/><use transform="matrix(0.018,0,0,0.018,5.526,0)" xlink:href="#av"/><use transform="matrix(0.018,0,0,0.018,15.281999999999998,0)" xlink:href="#au"/><use transform="matrix(0.018,0,0,0.018,23.651999999999997,0)" xlink:href="#aq"/><use transform="matrix(0.018,0,0,0.018,32.327999999999996,0)" xlink:href="#aj"/><use transform="matrix(0.018,0,0,0.018,38.483999999999995,0)" xlink:href="#av"/><use transform="matrix(0.018,0,0,0.018,48.239999999999995,0)" xlink:href="#ah"/><use transform="matrix(0.018,0,0,0.018,59.23799999999999,0)" xlink:href="#ak"/><use transform="matrix(0.018,0,0,0.018,68.238,0)" xlink:href="#ag"/><use transform="matrix(0.018,0,0,0.018,73.638,0)" xlink:href="#al"/></g><g id="U"><use transform="matrix(0.018,0,0,0.018,0,0)" xlink:href="#au"/><use transform="matrix(0.018,0,0,0.018,8.37,0)" xlink:href="#ag"/><use transform="matrix(0.018,0,0,0.018,13.77,0)" xlink:href="#aj"/><use transform="matrix(0.018,0,0,0.018,19.926,0)" xlink:href="#aw"/></g><g id="V"><use transform="matrix(0.018,0,0,0.018,0,0)" xlink:href="#aq"/><use transform="matrix(0.018,0,0,0.018,8.676,0)" xlink:href="#as"/><use transform="matrix(0.018,0,0,0.018,14.202000000000002,0)" xlink:href="#ag"/><use transform="matrix(0.018,0,0,0.018,19.601999999999997,0)" xlink:href="#ai"/><use transform="matrix(0.018,0,0,0.018,28.206,0)" xlink:href="#ah"/><use transform="matrix(0.018,0,0,0.018,39.20399999999999,0)" xlink:href="#ar"/><use transform="matrix(0.018,0,0,0.018,55.349999999999994,0)" xlink:href="#ad"/><use transform="matrix(0.018,0,0,0.018,64.25999999999999,0)" xlink:href="#ah"/><use transform="matrix(0.018,0,0,0.018,75.258,0)" xlink:href="#aj"/></g><g id="W"><use transform="matrix(0.018,0,0,0.018,0,0)" xlink:href="#aq"/><use transform="matrix(0.018,0,0,0.018,8.676,0)" xlink:href="#as"/><use transform="matrix(0.018,0,0,0.018,14.202000000000002,0)" xlink:href="#ag"/><use transform="matrix(0.018,0,0,0.018,19.601999999999997,0)" xlink:href="#ai"/><use transform="matrix(0.018,0,0,0.018,28.206,0)" xlink:href="#ah"/><use transform="matrix(0.018,0,0,0.018,39.20399999999999,0)" xlink:href="#ar"/><use transform="matrix(0.018,0,0,0.018,55.349999999999994,0)" xlink:href="#ad"/><use transform="matrix(0.018,0,0,0.018,64.25999999999999,0)" xlink:href="#ah"/><use transform="matrix(0.018,0,0,0.018,75.258,0)" xlink:href="#aj"/><use transform="matrix(0.018,0,0,0.018,81.41399999999999,0)" xlink:href="#ak"/><use transform="matrix(0.018,0,0,0.018,90.41400000000002,0)" xlink:href="#ag"/><use transform="matrix(0.018,0,0,0.018,95.81400000000001,0)" xlink:href="#al"/></g><g id="X"><use transform="matrix(0.018,0,0,0.018,0,0)" xlink:href="#aq"/><use transform="matrix(0.018,0,0,0.018,8.676,0)" xlink:href="#as"/><use transform="matrix(0.018,0,0,0.018,14.202000000000002,0)" xlink:href="#ag"/><use transform="matrix(0.018,0,0,0.018,19.601999999999997,0)" xlink:href="#ai"/><use transform="matrix(0.018,0,0,0.018,28.206,0)" xlink:href="#ah"/><use transform="matrix(0.018,0,0,0.018,39.20399999999999,0)" xlink:href="#ar"/><use transform="matrix(0.018,0,0,0.018,55.349999999999994,0)" xlink:href="#ad"/><use transform="matrix(0.018,0,0,0.018,64.25999999999999,0)" xlink:href="#ah"/><use transform="matrix(0.018,0,0,0.018,75.258,0)" xlink:href="#aj"/></g><g id="Y"><use transform="matrix(0.018,0,0,0.018,0,0)" xlink:href="#aj"/><use transform="matrix(0.018,0,0,0.018,6.156,0)" xlink:href="#ad"/><use transform="matrix(0.018,0,0,0.018,15.065999999999999,0)" xlink:href="#aq"/><use transform="matrix(0.018,0,0,0.018,23.741999999999997,0)" xlink:href="#ar"/><use transform="matrix(0.018,0,0,0.018,39.88799999999999,0)" xlink:href="#ak"/><use transform="matrix(0.018,0,0,0.018,48.88799999999999,0)" xlink:href="#aa"/><use transform="matrix(0.018,0,0,0.018,56.53799999999999,0)" xlink:href="#aj"/><use transform="matrix(0.018,0,0,0.018,62.69399999999999,0)" xlink:href="#aq"/><use transform="matrix(0.018,0,0,0.018,71.36999999999999,0)" xlink:href="#aj"/><use transform="matrix(0.018,0,0,0.018,77.526,0)" xlink:href="#ab"/><use transform="matrix(0.018,0,0,0.018,88.074,0)" xlink:href="#aa"/></g><g id="Z"><use transform="matrix(0.018,0,0,0.018,0,0)" xlink:href="#aj"/><use transform="matrix(0.018,0,0,0.018,6.156,0)" xlink:href="#ad"/><use transform="matrix(0.018,0,0,0.018,15.065999999999999,0)" xlink:href="#aq"/><use transform="matrix(0.018,0,0,0.018,23.741999999999997,0)" xlink:href="#ar"/><use transform="matrix(0.018,0,0,0.018,39.88799999999999,0)" xlink:href="#ak"/><use transform="matrix(0.018,0,0,0.018,48.88799999999999,0)" xlink:href="#aa"/><use transform="matrix(0.018,0,0,0.018,56.53799999999999,0)" xlink:href="#aj"/><use transform="matrix(0.018,0,0,0.018,62.69399999999999,0)" xlink:href="#aq"/><use transform="matrix(0.018,0,0,0.018,71.36999999999999,0)" xlink:href="#aj"/><use transform="matrix(0.018,0,0,0.018,77.526,0)" xlink:href="#ab"/><use transform="matrix(0.018,0,0,0.018,88.074,0)" xlink:href="#aa"/><use transform="matrix(0.018,0,0,0.018,95.724,0)" xlink:href="#ak"/><use transform="matrix(0.018,0,0,0.018,104.724,0)" xlink:href="#ag"/><use transform="matrix(0.018,0,0,0.018,110.12400000000001,0)" xlink:href="#al"/></g></defs></g></svg>